<?xml version="1.0" encoding="UTF-8" standalone="no" ?>
<!DOCTYPE svg PUBLIC "-//W3C//DTD SVG 1.1//EN" "http://www.w3.org/Graphics/SVG/1.1/DTD/svg11.dtd">
<svg xmlns="http://www.w3.org/2000/svg" version="1.1" width="1000" height="1000" viewBox="0 0 500 500"
     xml:space="preserve">
<desc>Created with Fabric.js 4.6.0</desc>
    <defs>
</defs>
    <g transform="matrix(1 0 0 1 248.18 248.64)" id="QL2BkgEClZnFZZXkmh2V7">
<filter id="SVGID_519" y="-20%" height="140%" x="-20%" width="140%">
	<feGaussianBlur in="SourceAlpha" stdDeviation="0"></feGaussianBlur>
    <feOffset dx="0" dy="0" result="oBlur"></feOffset>
    <feFlood flood-color="rgb(0,0,0)" flood-opacity="0.25"/>
    <feComposite in2="oBlur" operator="in"/>
    <feMerge>
		<feMergeNode></feMergeNode>
        <feMergeNode in="SourceGraphic"></feMergeNode>
	</feMerge>
</filter>
        <g style="filter: url(#SVGID_519);" vector-effect="non-scaling-stroke">
		<g transform="matrix(-1 0 0 1 41.13 -104.48)" id="QFONbKrGb1QLQ6hXUWdMi">
<path style="stroke: rgb(0,0,0); stroke-opacity: 0; stroke-width: 1; stroke-dasharray: none; stroke-linecap: butt; stroke-dashoffset: 0; stroke-linejoin: miter; stroke-miterlimit: 4; fill: rgb(88,125,159); fill-rule: nonzero; opacity: 1;"
      vector-effect="non-scaling-stroke" transform=" translate(0, 0)"
      d="M -7.04847 95.36296 C -39.23304 109.66243 -69.67475 106.20754 -99.20375 87.01483 C -128.73275 67.82212 -146.54847 34.994400000000006 -146.54847 -0.2237999999999971 C -146.54847 -35.401379999999996 -128.75101 -68.1906 -99.25368 -87.35750999999999 C -69.75635 -106.52441999999999 -32.56459000000001 -109.46636999999998 -0.4206800000000044 -95.1754 L 119.38175 -41.912049999999994 C 135.90412 -34.56631999999999 146.55072 -18.179279999999995 146.54847 -0.09756999999999039 C 146.54623 17.98414000000001 135.4907 32.344240000000006 118.96651000000001 39.68587000000001 z M 28.18838 -0.15704 L -29.3456 -25.447699999999998 C -37.723020000000005 -28.75678 -47.19518 -27.70528 -54.6429 -22.639439999999997 C -62.09062 -17.5736 -66.54845999999999 -9.150119999999998 -66.54845999999999 -0.14282999999999646 C -66.54845999999999 8.822340000000004 -62.09127999999999 17.200860000000002 -54.65670999999999 22.211010000000005 C -47.22214999999999 27.221160000000005 -37.783199999999994 28.207240000000006 -29.47364999999999 24.841880000000003 z"
      stroke-linecap="round"/>
</g>
            <g transform="matrix(-1 0 0 1 41.13 33.87)" id="b-xTS_ywAghEXoGHyRdix">
<path style="stroke: rgb(0,0,0); stroke-opacity: 0; stroke-width: 1; stroke-dasharray: none; stroke-linecap: butt; stroke-dashoffset: 0; stroke-linejoin: miter; stroke-miterlimit: 4; fill: rgb(48,55,63); fill-rule: nonzero; opacity: 1;"
      vector-effect="non-scaling-stroke" transform=" translate(0, 0)"
      d="M -4.70999 92.94068 C -36.89456 107.24015 -69.67475 106.71706 -99.20375 87.52435 C -128.73275 68.33164 -146.54847 35.50392 -146.54847 0.28571999999999775 C -146.54847 -34.89186 -128.75101 -67.68108000000001 -99.25368 -86.84799 C -69.75635 -106.0149 -36.208310000000004 -107.74228 -4.064400000000006 -93.45130999999999 L 119.38175 -41.40252999999999 C 135.90412 -34.056799999999996 146.55072 -17.669759999999993 146.54847 0.4119500000000116 C 146.54623 18.493660000000013 135.89556000000002 34.87805000000001 119.37137000000001 42.21968000000001 z M 28.18838 0.35248 L -29.3456 -24.93818 C -37.723020000000005 -28.247259999999997 -47.19518 -27.19576 -54.6429 -22.12992 C -62.09062 -17.064079999999997 -66.54845999999999 -8.6406 -66.54845999999999 0.36669000000000196 C -66.54845999999999 9.331860000000002 -62.09127999999999 17.71038 -54.65670999999999 22.720530000000004 C -47.22214999999999 27.730680000000003 -37.783199999999994 28.716760000000004 -29.47364999999999 25.351400000000005 z"
      stroke-linecap="round"/>
</g>
            <g transform="matrix(1 0 0 1 -41.13 -35.97)" id="_KQ12horjw_s6jP_ds3pm">
<path style="stroke: rgb(0,0,0); stroke-opacity: 0; stroke-width: 1; stroke-dasharray: none; stroke-linecap: butt; stroke-dashoffset: 0; stroke-linejoin: miter; stroke-miterlimit: 4; fill: rgb(214,224,237); fill-rule: nonzero; opacity: 1;"
      vector-effect="non-scaling-stroke" transform=" translate(0, 0)"
      d="M -0.25655 95.01735 C -32.44112 109.31681999999999 -69.67475 106.36457999999999 -99.20375 87.17187 C -128.73275 67.97916 -146.54847 35.15144 -146.54847 -0.06676000000000215 C -146.54847 -35.24434 -128.75101 -68.03356000000001 -99.25368 -87.20047 C -69.75635 -106.36738 -32.56459000000001 -109.30932999999999 -0.4206800000000044 -95.01836 L 119.38175 -41.75501 C 135.90412 -34.409279999999995 146.55072 -18.02224 146.54847 0.059470000000004575 C 146.54623 18.141180000000006 135.89556000000002 34.52557 119.37137000000001 41.867200000000004 z M 28.18838 0 L -29.3456 -25.29066 C -37.723020000000005 -28.599739999999997 -47.19518 -27.54824 -54.6429 -22.4824 C -62.09062 -17.416559999999997 -66.54845999999999 -8.993079999999999 -66.54845999999999 0.014210000000002054 C -66.54845999999999 8.979380000000003 -62.09127999999999 17.3579 -54.65670999999999 22.368050000000004 C -47.22214999999999 27.378200000000003 -37.783199999999994 28.364280000000004 -29.47364999999999 24.998920000000005 z"
      stroke-linecap="round"/>
</g>
            <g transform="matrix(1 0 0 1 -41.13 104.64)" id="glZvwVFc0w7nN1z3xKoDL">
<path style="stroke: rgb(0,0,0); stroke-opacity: 0; stroke-width: 1; stroke-dasharray: none; stroke-linecap: butt; stroke-dashoffset: 0; stroke-linejoin: miter; stroke-miterlimit: 4; fill: rgb(88,125,159); fill-rule: nonzero; opacity: 1;"
      vector-effect="non-scaling-stroke" transform=" translate(0, 0)"
      d="M -0.25655 95.01735 C -32.44112 109.31681999999999 -69.67475 106.36457999999999 -99.20375 87.17187 C -128.73275 67.97916 -146.54847 35.15144 -146.54847 -0.06676000000000215 C -146.54847 -35.24434 -128.75101 -68.03356000000001 -99.25368 -87.20047 C -69.75635 -106.36738 -32.56459000000001 -109.30932999999999 -0.4206800000000044 -95.01836 L 119.38175 -41.75501 C 135.90412 -34.409279999999995 146.55072 -18.02224 146.54847 0.059470000000004575 C 146.54623 18.141180000000006 135.89556000000002 34.52557 119.37137000000001 41.867200000000004 z M 28.18838 0 L -29.3456 -25.29066 C -37.723020000000005 -28.599739999999997 -47.19518 -27.54824 -54.6429 -22.4824 C -62.09062 -17.416559999999997 -66.54845999999999 -8.993079999999999 -66.54845999999999 0.014210000000002054 C -66.54845999999999 8.979380000000003 -62.09127999999999 17.3579 -54.65670999999999 22.368050000000004 C -47.22214999999999 27.378200000000003 -37.783199999999994 28.364280000000004 -29.47364999999999 24.998920000000005 z"
      stroke-linecap="round"/>
</g>
</g>
</g>
</svg>