<?xml version="1.0" encoding="UTF-8" standalone="no" ?>
<!DOCTYPE svg PUBLIC "-//W3C//DTD SVG 1.1//EN" "http://www.w3.org/Graphics/SVG/1.1/DTD/svg11.dtd">
<svg xmlns="http://www.w3.org/2000/svg" version="1.1" width="167" height="167"
     viewBox="0 2.842170943040401e-14 499.99999999999994 499.99999999999994" xml:space="preserve">
<desc>Created with Fabric.js 4.6.0</desc>
    <defs>
</defs>
    <g transform="matrix(1 0 0 1 250 249.92)" id="zr3_m5lF27NoqrfgDJ7qp">
<linearGradient id="SVGID_0" gradientUnits="userSpaceOnUse" gradientTransform="matrix(1 0 0 1 0 0)"
                x1="0.31539280740560116" y1="500.27648070779065" x2="501.0649627263046" y2="0.3747849594494994">
<stop offset="0%" style="stop-color:#AE00C9;stop-opacity: 1"/>
    <stop offset="21.517789943192312%" style="stop-color:#FB009A;stop-opacity: 1"/>
    <stop offset="37.848654877823925%" style="stop-color:#FF446D;stop-opacity: 1"/>
    <stop offset="63.24746033557812%" style="stop-color:#FF8B4D;stop-opacity: 1"/>
    <stop offset="86.71922989121369%" style="stop-color:#FFC548;stop-opacity: 1"/>
    <stop offset="100%" style="stop-color:#F9F871;stop-opacity: 1"/>
</linearGradient>
        <path style="stroke: rgb(42,100,48); stroke-width: 0; stroke-dasharray: none; stroke-linecap: butt; stroke-dashoffset: 0; stroke-linejoin: miter; stroke-miterlimit: 4; fill: url(#SVGID_0); fill-rule: nonzero; opacity: 1;"
              vector-effect="non-scaling-stroke" transform=" translate(-150, -149.92)"
              d="M 25.69576 0.09509 L 171.28434000000001 0.09509 L 171.28434000000001 214.20341 C 171.28434000000001 261.50491 132.94273 299.84638 85.64217000000002 299.84638 C 38.34260000000002 299.84638 2.842170943040401e-14 261.50491 2.842170943040401e-14 214.20341000000002 C 2.842170943040401e-14 166.90191000000002 38.34161000000003 128.56044000000003 85.64217000000002 128.56044000000003 L 111.33394000000003 128.56044000000003 L 111.33394000000003 171.38092000000003 L 85.64217000000002 171.38092000000003 C 61.99639000000002 171.38092000000003 42.82158000000002 190.55710000000002 42.82158000000002 214.20140000000004 C 42.82158000000002 237.84770000000003 61.99738000000002 257.02188 85.64217000000002 257.02188 C 109.28795000000002 257.02188 128.46276000000003 237.84570000000002 128.46276000000003 214.2014 L 128.46276000000003 42.91556 L 25.692770000000024 42.91556 z M 214.35783 128.46144 C 238.00361 128.46144 257.17842 109.28526000000001 257.17842 85.64096 C 257.17842 61.99466000000001 238.00262 42.82048 214.35783 42.82048 L 188.66606000000002 42.82048 L 188.66606000000002 0 L 214.35783 0 C 261.6574 0 300 38.34147 300 85.64297 C 300 132.94447 261.65839 171.28594 214.35783 171.28594 L 188.66606000000002 171.28594 L 188.66606000000002 128.46546 z"
              stroke-linecap="round"/>
</g>
</svg>